<svg width="2196" height="414" viewBox="0 0 2196 414" fill="none" xmlns="http://www.w3.org/2000/svg">
<g filter="url(#filter0_d_31_1260)">
<mask id="path-1-inside-1_31_1260" fill="white">
<path fill-rule="evenodd" clip-rule="evenodd" d="M1611.32 1.02301C1607.76 1.79386 1605.85 2.72866 1602.63 4.45495C1599.03 6.38978 1597.29 7.97153 1594.13 10.571C1580.32 21.9468 1570.78 43.7136 1568.52 48.571C1561.29 64.1268 1556.57 86.9988 1555.65 90.571C1547.55 122.137 1539.65 155.66 1537.25 187.821C1536.09 203.261 1538.02 225.745 1531.26 241.911C1526.3 253.789 1516.47 260.963 1510.08 267.173C1507.48 269.704 1504.06 272.223 1502.49 272.771C1501.03 273.282 1498.52 275.776 1495.63 277.071C1492.15 278.636 1486.17 279.537 1486.17 279.537C1486.17 279.537 1478.78 279.934 1475.22 277.433C1470.45 274.086 1469.7 263.571 1469.7 263.571C1469.7 263.571 1468.52 244.376 1470.63 235.574C1472.08 229.534 1474.52 221.721 1477.76 216.404C1477.76 216.404 1480.6 211.902 1483 209.523C1485.88 206.661 1492.27 203.473 1491.5 203.523C1492.46 203.059 1496.08 202.098 1499 202.523C1509.68 204.076 1504.64 224.187 1496.24 230.032C1493.16 233.299 1491.32 239.104 1492.36 242.259C1492.51 242.706 1494.94 243.001 1497.75 242.915C1503.53 242.739 1505.88 241.071 1505.88 237.142C1505.88 229.074 1518.16 196.256 1497.63 197.756C1491.26 198.222 1487.52 198.893 1481.72 201.571C1466.97 208.378 1457.63 229.596 1457.63 235.49C1457.63 239.369 1442.95 249.454 1439.46 253.071C1430.95 259.604 1433.95 258.347 1416.5 268.523C1399.64 278.493 1384.95 281.463 1373.5 283.523C1362.33 287.344 1336.66 288.932 1325.13 288.527C1315.73 288.194 1280.63 283.29 1280.63 283.29C1264.5 281.023 1244.52 270.48 1231.5 265.603C1222.11 262.085 1215.2 257.916 1207 254.523C1195.5 250.523 1231.26 226.821 1231.26 226.821L1255.63 202.057L1274.65 175.04C1274.65 175.04 1293.98 141.478 1285.63 122.071C1281.52 112.512 1277.39 107.172 1268.62 101.562C1254.9 92.7754 1242.3 92.893 1227 98.523C1216.07 102.548 1206.55 110.101 1203.29 116.632C1202.63 117.964 1201.31 119.203 1200.36 119.386C1198.15 119.811 1196.5 116.632 1196.5 116.632C1191.17 110.654 1180.91 101.222 1168 98.523C1157.39 96.3038 1150.34 96.7417 1140.35 100.95C1132.91 104.082 1128.86 106.948 1123.63 113.099C1118.25 119.441 1116.12 124.097 1114.21 132.206C1114.21 132.206 1111.96 150.253 1114.09 161.321C1114.65 166.362 1116.37 170.313 1118.58 174.789L1121.71 180.429L1133.13 197.523C1133.13 197.523 1150.59 217.941 1154.04 221.571C1154.04 221.571 1161.18 229.697 1166.4 234.219C1168.36 235.92 1171.56 238.415 1171.56 238.415C1171.56 238.415 1182.17 244.186 1186.18 248.623C1188.66 251.358 1188.44 254.236 1181.5 258.086C1162.39 268.685 1110.1 291.519 1089.89 295.394C1045.35 302.264 1022.06 305.431 1003.28 301.869C1002.44 302.768 966.917 295.456 955.784 283.571C954.829 284.311 941.963 266.074 943 259.523C942.466 247.387 946.281 234.184 946.297 234.437C946.297 234.437 950.209 227.795 941.628 225.069C937.642 224.638 936.5 229.523 936.5 229.523C936.5 229.523 934.162 233.824 933.178 238.058C930.798 248.298 923.469 255.929 916.258 263.47C912.334 267.576 903.859 276.571 898.196 276.571C894.688 276.571 892.936 271.629 894.445 265.987C899.119 248.509 903.133 232.388 919.971 220.675C933.191 211.48 933.795 225.121 942.95 221.641C951.5 216.023 940 209.523 933.183 208.355C925.5 208.023 914.64 212.415 908.933 217.454C882.955 236.336 878.857 288.743 839.905 290.169C830.03 290.53 820.736 276.484 820 266.523C819.717 262.694 819.218 260.949 820.562 257.241C824 251.023 832.063 247.18 838.14 240.757C847.404 230.968 848.868 229.117 851.977 223.269C854.768 218.021 856.017 212.306 855.906 205.292C855.791 197.912 848.808 194.478 842.193 194.951C817.904 196.69 803.147 232.487 790.634 247.955C790.634 248.9 779.884 260.488 779.884 260.488C779.884 260.488 739.892 316.458 721.689 343.174C716.888 350.224 709.235 354.893 704.07 346.594C689.585 323.307 734.636 252.662 729.603 249.552C731.417 250.712 732.415 241.707 725 237.023C722.134 235.996 707.724 229.523 709.862 220.023C712 210.523 728.908 177.563 725 168.523C721.092 159.483 710.29 158.396 706.259 160.023C701.304 162.023 689.556 174.119 688.931 185.571C688.336 196.519 686.443 207.057 687.999 218.071C688.749 223.382 691.086 227.918 693.763 232.455C680.532 255.895 661.724 302.324 638.582 314.342C633.374 316.274 634.674 316.852 627.634 314.004C620.408 310.536 618.759 279.023 618.759 279.023V264.825C623.259 224.523 631.259 214.523 640.759 191.023C653.876 155.109 669.403 117.975 684.969 81.222C691.491 65.8365 699.411 21.0578 676.236 23.544C658.892 25.4015 652.53 52.7431 646.759 66.023C636.484 89.6362 621.382 201.571 599.634 201.571C589.039 201.571 578.614 213.337 571.826 220.173C563.734 231.333 556.798 243.421 547.575 253.716C537.544 264.912 527.479 275.621 516.5 286.023C511.5 290.523 505 287.023 505 287.023C505 287.023 499.068 280.177 497.123 278.562C484.5 249.523 495.634 227.18 492.608 190.238C494.026 166.152 463.715 201.652 463.085 202.571C454.634 214.902 444.36 244.563 417.567 275.571C416.01 275.571 413.677 275.058 415.219 268.321C418.353 254.622 431.508 215.533 424.59 209.533C423.346 208.454 422.059 207.586 421.731 207.604C411.037 208.205 411.297 235.267 403.692 243.576C395.3 252.748 387.388 260.613 377.926 269.498C358.995 287.261 356.869 237.005 362.433 226.887C364.084 223.884 363.134 220.023 362.197 219.733C361.259 219.443 360.134 219.023 359.384 219.733C358.634 220.443 320.598 263.986 318.726 265.571C318.726 265.571 317.207 267.486 314.134 269.023C311.061 270.56 308.104 271.153 308.104 271.153C308.104 271.153 302.634 272.041 302.634 268.571C302.634 266.346 303.134 261.523 303.134 261.523C303.134 261.523 304.026 257.101 305.581 252.721C309.338 242.135 313.608 231.745 321.318 222.679C321.318 222.679 331.817 212.539 341.434 211.046C345.553 210.406 345.784 210.508 346.889 213.437C347.945 216.234 348.346 216.448 351.589 215.943C355.37 215.355 359.134 213.023 359.634 209.023C360.106 206.665 356.77 202.377 354.634 201.523C346.134 196.523 301.134 216.715 301.134 216.715C301.134 216.715 254.261 222.767 220.648 220.593C220.648 220.593 171.34 210.569 152.634 207.523L143.634 206.023C106.686 197.922 66.0538 193.564 30.7411 209.938C23.613 213.243 14.3226 217.65 9.97009 224.64C8.24958 227.403 6.134 232.023 6.75909 234.571C0.308183 236.911 7.24426 250.613 17.6341 242.571C20.045 240.705 19.1305 234.711 16.0031 233.521C14.7001 233.026 13.6341 232.197 13.6341 231.68C13.6341 224.763 35.6987 214.957 39.8841 212.937C69.89 204.95 100.133 206.085 130.68 210.546C155.599 216.188 208.537 227.41 208.537 227.41C242.835 232.601 272.707 231.649 303.409 225.018C306.677 224.313 305.589 227.189 305.589 227.189C299.748 237.837 292.32 260.071 292.32 260.071C292.32 260.071 288.634 269.523 289.134 277.197C289.134 279.023 290.634 283.523 294.134 284.204C297.134 285.023 302.075 283.868 310.919 283.172C313.897 282.937 316.663 281.888 318.998 280.107C327.435 273.671 334.726 259.718 342.884 255.471C344.122 254.827 344.8 254.657 344.393 255.094C341.634 265.023 357.134 284.523 360.865 284.523C370.619 284.523 397.276 264.296 403.329 256.821C404.601 255.248 404.632 255.303 403.631 257.364C403.019 258.625 402.635 260.875 402.779 262.364C403.09 265.576 400.661 297.326 403.963 297.706C426.096 300.25 451.871 241.861 460.134 220.023C461.634 214.523 471.5 203.023 471.5 203.023C471.5 203.023 474.5 199.523 475.5 199.023C476.5 198.523 479.5 197.523 479.5 200.023C479.5 213.646 473.366 290.217 495.634 295.146C507.718 297.823 509.631 297.411 519 294.023C526.615 289.263 534.464 277.563 541.124 270.882C543.969 268.029 547.385 265.421 548.715 265.087C551.54 264.378 549.832 293.92 565.062 290.235C576.142 287.555 581.99 281.374 589.123 274.126C592.154 271.046 594.637 267.799 594.637 267.799C594.637 267.799 601.303 257.689 604.281 258.106C607.259 258.523 606.788 262.034 606.788 262.034C605.864 276.53 608.259 306.523 614.259 316.523C626.667 342.466 642.759 328.023 652.759 318.523C673.644 295.549 681.84 264.008 699.337 238.66C699.494 238.435 700.421 238.973 701.398 239.858C723.706 260.022 676.39 339.696 687 354.523C692.871 362.727 693 362.523 706.5 363.523C724.102 364.827 736.162 334.801 746.384 324.031C767.073 291.454 790.366 259.448 790.366 259.448C790.981 257.977 796.118 253.136 797.363 253.071C797.363 253.071 804.025 249.965 805.644 255.606C811.7 276.734 808.595 281.609 821.031 293.027C853.895 314.042 876.298 269.59 880.724 273.571C882.265 273.466 885 276.523 884 279.523C883.564 292.638 898.504 289.115 901.896 287.713C907.495 286.274 916.308 280.02 920.511 274.504C927.697 265.07 928.708 264.128 930.461 265.234C931.365 265.804 932.672 268.231 933.366 270.629C939.361 291.336 960.547 298.655 978.132 306.006C1011.62 319.987 1080.53 304.988 1080.53 304.988C1111.39 297.342 1128.81 290.833 1160.01 276.602C1170.28 271.625 1182.44 264.848 1191 257.335C1194.6 254.179 1197.68 253 1203 258.023C1207.09 261.889 1218.21 268.28 1228.78 273.321C1245.26 281.184 1263.26 286.929 1281 291.023C1283.3 291.255 1320.63 295.603 1320.63 295.603C1336.18 296.71 1344.27 295.559 1358.63 293.278C1372.77 290.389 1380.12 289.164 1396.63 284.65C1402.12 282.871 1415.02 277.244 1419.92 274.036C1430.93 266.819 1437.85 264.706 1445.64 256.892C1448.8 253.727 1453.3 250.196 1454.68 252.098C1455.51 252.622 1456 254.878 1455.57 256.392C1453.76 262.718 1460 273.571 1460 273.571C1460 273.571 1462.58 279.378 1465.5 282.023C1468.03 284.314 1469.91 285.12 1473.11 286.317C1476.47 287.576 1478.54 287.878 1482.13 288.099C1486.04 288.34 1488.38 288.394 1492.12 287.254C1495.07 286.359 1501.58 283.076 1506.79 279.105C1511.65 275.399 1513.37 272.189 1517.85 268.033C1520.04 266.011 1523.54 262.96 1523.54 262.96C1523.54 262.96 1529.94 256.13 1532.52 257.512C1534.04 258.321 1534.53 260.074 1535 266.297C1536.14 281.364 1536.2 300.701 1543.3 314.333C1543.3 314.333 1545.27 317.654 1547.5 318.523C1549.07 319.135 1550.43 319.286 1550.43 319.286C1559.68 319.04 1559.5 316.364 1563.5 308.364C1566.43 304.344 1571.61 288.072 1576.39 278.765C1578.83 273.991 1583 266.523 1583 266.523C1583 266.523 1586.66 258.417 1590.5 259.571C1593.35 260.427 1594.38 264.023 1594.38 264.023C1598.54 273.137 1599.83 280.83 1605.04 290.812C1607.85 296.202 1612.99 304.196 1612.99 304.196C1612.99 304.196 1616.2 309.547 1619.61 311.023C1623.15 312.559 1627.1 313.426 1630.7 312.023C1632.53 311.31 1635.63 310.023 1635.63 310.023C1635.63 310.023 1640.21 306.09 1643.13 303.556C1647.62 299.668 1650.23 297.597 1654.57 293.551C1667.29 281.702 1684.2 260.343 1684.2 260.343C1684.2 260.343 1689.14 250.294 1696.76 245.475C1698.46 244.396 1700.28 244.024 1702.5 244.523C1704.58 244.991 1705.73 245.859 1707.07 247.523C1708.38 249.156 1709 252.523 1709 252.523C1709 252.523 1709.66 253.627 1709 255.681C1708.34 257.734 1707.14 260.448 1705.9 262.211C1704.4 264.346 1702.72 268.088 1702.72 268.088C1699.08 277.181 1693.93 286.503 1691.1 294.821C1688.31 303.031 1685.62 318.186 1686.28 323.216C1685.99 332.547 1689.5 349.023 1689.5 349.023C1689.5 349.023 1692.02 358.627 1696.5 362.523C1698.88 364.588 1702 365.523 1702 365.523C1702 365.523 1705.43 366.822 1709.52 366.14C1717.91 364.746 1728.27 356.144 1735.63 345.406C1745.59 330.891 1753.29 314.57 1762.5 299.571C1772.02 284.06 1775.51 277.735 1787.67 260.343C1789.29 258.022 1794.75 253.387 1795.51 253.085C1797.71 252.208 1799.49 255.614 1798.88 259.541C1797.09 271.131 1798.68 296.288 1815.58 302.571C1820.04 304.233 1822.94 305.333 1827.63 304.479C1831.76 303.728 1837.18 299.571 1837.18 299.571C1837.18 299.571 1841.47 295.841 1843.95 293.18C1847.32 289.565 1848.9 287.246 1851.74 283.206C1855.51 277.863 1859.13 272.908 1862.51 267.468C1866.12 261.66 1870 267.571 1870 267.571C1870 267.571 1877.99 279.601 1874.1 292.278C1870.31 304.613 1860.99 307.396 1852.5 317C1845.46 324.957 1840.52 328.615 1834.38 337.286C1824.26 351.601 1815.74 378.137 1815.74 378.137C1815.74 378.137 1812.26 391.769 1816.5 398.5C1823.07 408.911 1836.19 406.389 1847.79 402.281C1857.65 398.79 1867.79 384.473 1867.79 384.473C1873.42 375.862 1880.48 363.572 1884.45 348.669C1886.75 340.024 1887.59 333.802 1888.08 326.05C1889.15 309.054 1891.14 309.081 1890.18 296.912C1889.87 293.06 1891.68 291.528 1894 289C1904.85 277.183 1931.61 273.977 1948.2 273.115C1971.85 271.882 1989.5 273.905 2015.83 276.25C2039.39 278.348 2052.27 283.034 2075.9 283.909C2097.77 284.719 2110.35 285.231 2131.88 281.327C2141.67 279.552 2147.35 278.866 2156.63 275.276C2164.59 272.196 2168.97 269.988 2176.02 265.183C2178.68 263.373 2180.37 262.555 2182.61 260.252C2188.49 254.209 2194.84 246.904 2190.03 239.972C2187.26 235.972 2183.52 231.288 2178.94 234.287C2177.15 235.465 2175.75 238.002 2176.5 239.972C2177.99 243.905 2180.8 241.622 2182 244C2183.74 247.449 2182.07 251.161 2179.5 254.5C2177.57 257.005 2172.48 260.615 2169.38 262.039C2144.64 273.421 2123.8 276.947 2093.63 277.158C2070.52 277.32 2058.06 269.86 2035 267C2011.49 264.085 1998.15 261.169 1974.5 262.5C1959.95 263.319 1951.77 264.472 1937.52 267.571C1920.73 271.225 1911.98 275.767 1895.56 280.839C1892.58 281.761 1890.79 284.429 1887.92 283.19C1884.63 281.77 1886.02 277.932 1885 274.5C1880.96 260.9 1876.23 252.344 1879.63 238.571C1881.97 229.116 1888.97 223.833 1891.73 216.761C1893.03 213.433 1895.1 207.847 1895 203C1894.93 199.462 1892.46 196.283 1888.5 194.5C1888.5 194.5 1879 193 1873 194C1868.63 194.729 1866.39 197 1864.95 202C1863.5 207 1865.81 215.791 1864.95 218.523C1864.95 218.523 1865.98 242.859 1863.58 251.776C1863.03 253.813 1861.5 256.768 1860.17 258.343C1854.14 265.511 1850.63 274.523 1844.63 281.774C1841.51 285.552 1840.08 288.073 1836.2 291.071C1832.3 294.087 1829.81 297.989 1825 296.912C1822.24 296.293 1821.11 294.722 1819.01 292.821C1809.27 283.995 1814 259.541 1814 259.541C1814 259.541 1814.98 247.583 1818.51 228.071C1820.82 215.165 1821.76 214.739 1818 213C1814.79 211.516 1811.85 211.91 1809 214C1806.07 216.148 1805.37 222.571 1805.37 222.571C1805.37 222.571 1800.63 243.004 1797.5 243.004C1796.53 243.004 1784.55 253.406 1783.25 254.989C1761.54 281.488 1741.71 310.73 1726.88 341.843C1726.88 341.843 1721.46 353.518 1714.63 354.638C1711.97 355.075 1710.9 355.762 1707.75 354.13C1705.45 352.943 1703.38 348.673 1702 344.523C1699.7 337.582 1700.25 332.845 1701 325.571C1701.6 319.828 1702.59 315.327 1704 310.5C1709.23 292.571 1715.29 278.911 1721.63 267.468C1727.09 257.618 1728.5 253.148 1724.18 245.787C1721.76 241.654 1714.29 239.575 1713.61 239.574C1702.82 239.548 1705.56 228.674 1707.07 223.477C1707.45 223.317 1720.57 197.99 1716.95 174.571C1716.07 168.892 1711.07 165.549 1705.32 165.556C1701.13 165.561 1698.47 166.782 1695 169.523C1690.71 172.916 1689.41 176.738 1687.63 182.071C1685.99 187.012 1677.89 200.076 1683.16 222.444C1684.7 228.975 1691.5 233.26 1690.5 238.523C1690.63 240.974 1689.57 243.014 1687.5 244.523C1682.94 248.036 1680.73 253.401 1678.38 255.681C1672.99 262.697 1668.46 269.294 1661.9 276.451C1655.87 283.014 1651.53 287.466 1644.46 294.114C1641.36 297.03 1634.93 299.571 1630.7 299.571C1626.65 299.571 1621.52 297.167 1621 295.523C1611.06 285.071 1607.41 265.019 1603.88 252.882C1603.27 250.761 1602.21 249.645 1600.34 248.472C1598.71 247.445 1598.31 247.521 1595.57 247.157C1588.39 246.204 1584.72 248.268 1579.58 256.155C1573.54 265.424 1559.63 292.566 1559.63 292.566C1559.63 292.566 1554.96 302.616 1554.16 302.921C1551.08 304.105 1550 300.023 1550 300.023C1546.41 295.71 1547.18 214.524 1553.01 210.861C1552.5 204.523 1560.88 200.257 1566.06 193.571C1579.89 175.74 1593.97 156.915 1604.69 137.055C1604.69 137.055 1628.75 92.8036 1629.62 90.321C1636.42 70.9421 1643.25 58.1346 1645 37.023C1645.79 27.5389 1646.34 22.7199 1641.5 14.523C1638.24 8.9896 1633.13 4.69752 1627.24 2.11401C1621.54 -0.392047 1617.42 -0.293556 1611.32 1.02301ZM1627.24 10.571C1632.5 14.023 1633.5 15.523 1634.5 22.523C1637.75 45.2674 1601.67 130.212 1592.13 143.159C1592.13 143.159 1577.87 173.12 1566.06 184.023C1561.93 187.849 1558.33 191.017 1555.5 188.523C1553.69 186.925 1554.17 186.075 1553.5 182.523C1548.68 157.095 1569.54 90.9056 1574.5 70.15C1577.03 59.5705 1580.69 49.6194 1585.1 39.571C1590.96 26.1921 1602.92 13.6857 1610.65 10.175C1617.64 7.00398 1627.24 10.571 1627.24 10.571ZM681.603 34.781C683.445 37.056 683.5 39.085 682.122 54.071C680.771 68.7683 632.759 196.523 631.759 198.523C630.759 200.523 630.259 202.023 628.259 201.523C626.259 201.023 626.04 199.821 626.191 197.071C628.787 150.01 649.889 100.059 663.214 55.676C665.958 46.5413 669.687 40.5601 673.259 34.781C676.259 32.023 679.606 32.315 681.603 34.781ZM1266.13 107.721C1271.8 112.221 1274.27 116.122 1276.71 122.935C1278.42 127.733 1278.45 130.733 1278.76 135.819C1280.12 158.497 1256.51 189.571 1256.51 189.571C1241.18 209.842 1222.71 235.678 1197.42 243.174C1188.15 245.922 1161.63 215.802 1161.63 215.802C1161.63 215.802 1133.6 189.211 1128.58 173.867C1125.36 164.042 1122.96 157.411 1123.1 146.636C1123.22 138.131 1122.88 137.727 1124.46 132.349C1127.46 122.108 1131.48 115.328 1141.07 110.654C1147.38 107.578 1151.82 107.536 1158.84 107.887C1175.38 108.715 1187.18 119.133 1195 130.023C1196.92 132.695 1198.32 136.523 1200.36 136.523C1203.91 136.523 1206.5 128.523 1206.5 128.523C1206.5 128.523 1217.32 110.875 1228.64 105.927C1242.07 100.056 1254.66 98.6044 1266.13 107.721ZM715.19 182.518C714.882 188.138 708.921 216.322 702.262 215.375C700.593 215.136 700.067 214.263 699.824 211.321C698.904 200.252 699.088 178.733 710.622 170.302C712.826 168.69 715.19 170.302 715.19 170.302C717.103 172.413 715.222 179.713 715.19 182.518ZM1709 176.023C1709.82 178.471 1710.3 179.963 1710.5 182.523C1711.64 197.097 1707.92 217.571 1696.85 217.571C1685.63 213.072 1697 172.523 1704 173.023C1706.79 173.222 1708.5 174.523 1709 176.023ZM1817.41 190.567C1809.28 194.643 1810.97 195.739 1810.5 197.935C1809.14 204.347 1817.43 207.322 1821 205C1826.99 203 1827 201.733 1827.62 197.935C1827.65 191.155 1824.06 188.566 1817.41 190.567ZM845.773 206.5C851.884 211.494 834.926 234.274 834.926 234.274C824.82 244.982 822.508 244.362 818.5 243.023C808.241 241.173 821.069 198.047 845.773 206.5ZM603.791 241.692C597.617 250.467 590.485 260.685 582.634 267.951C578.623 271.662 576.808 274.5 571.848 276.872C560.267 282.415 566.641 265.44 567.242 260.454C568.153 252.873 577.907 220.173 593.259 211.523C600.759 208.023 600.759 208.023 605.759 211.023C610.759 214.023 606.057 238.473 603.791 241.692ZM1875.08 309.655C1891.62 327.258 1869.7 359.467 1863.32 375C1863.32 375 1854 388.145 1843.5 393C1839.46 394.868 1839.17 397.359 1832.5 396C1829.97 395.484 1826.27 392.95 1825 391.007C1819.43 382.475 1828.83 362.545 1837.11 346.582C1844.68 331.991 1853.08 324.271 1863.32 313.651C1868.79 307.981 1871.17 305.493 1875.08 309.655Z"/>
</mask>
<path fill-rule="evenodd" clip-rule="evenodd" d="M1611.32 1.02301C1607.76 1.79386 1605.85 2.72866 1602.63 4.45495C1599.03 6.38978 1597.29 7.97153 1594.13 10.571C1580.32 21.9468 1570.78 43.7136 1568.52 48.571C1561.29 64.1268 1556.57 86.9988 1555.65 90.571C1547.55 122.137 1539.65 155.66 1537.25 187.821C1536.09 203.261 1538.02 225.745 1531.26 241.911C1526.3 253.789 1516.47 260.963 1510.08 267.173C1507.48 269.704 1504.06 272.223 1502.49 272.771C1501.03 273.282 1498.52 275.776 1495.63 277.071C1492.15 278.636 1486.17 279.537 1486.17 279.537C1486.17 279.537 1478.78 279.934 1475.22 277.433C1470.45 274.086 1469.7 263.571 1469.7 263.571C1469.7 263.571 1468.52 244.376 1470.63 235.574C1472.08 229.534 1474.52 221.721 1477.76 216.404C1477.76 216.404 1480.6 211.902 1483 209.523C1485.88 206.661 1492.27 203.473 1491.5 203.523C1492.46 203.059 1496.08 202.098 1499 202.523C1509.68 204.076 1504.64 224.187 1496.24 230.032C1493.16 233.299 1491.32 239.104 1492.36 242.259C1492.51 242.706 1494.94 243.001 1497.75 242.915C1503.53 242.739 1505.88 241.071 1505.88 237.142C1505.88 229.074 1518.16 196.256 1497.63 197.756C1491.26 198.222 1487.52 198.893 1481.72 201.571C1466.97 208.378 1457.63 229.596 1457.63 235.49C1457.63 239.369 1442.95 249.454 1439.46 253.071C1430.95 259.604 1433.95 258.347 1416.5 268.523C1399.64 278.493 1384.95 281.463 1373.5 283.523C1362.33 287.344 1336.66 288.932 1325.13 288.527C1315.73 288.194 1280.63 283.29 1280.63 283.29C1264.5 281.023 1244.52 270.48 1231.5 265.603C1222.11 262.085 1215.2 257.916 1207 254.523C1195.5 250.523 1231.26 226.821 1231.26 226.821L1255.63 202.057L1274.65 175.04C1274.65 175.04 1293.98 141.478 1285.63 122.071C1281.52 112.512 1277.39 107.172 1268.62 101.562C1254.9 92.7754 1242.3 92.893 1227 98.523C1216.07 102.548 1206.55 110.101 1203.29 116.632C1202.63 117.964 1201.31 119.203 1200.36 119.386C1198.15 119.811 1196.5 116.632 1196.5 116.632C1191.17 110.654 1180.91 101.222 1168 98.523C1157.39 96.3038 1150.34 96.7417 1140.35 100.95C1132.91 104.082 1128.86 106.948 1123.63 113.099C1118.25 119.441 1116.12 124.097 1114.21 132.206C1114.21 132.206 1111.96 150.253 1114.09 161.321C1114.65 166.362 1116.37 170.313 1118.58 174.789L1121.71 180.429L1133.13 197.523C1133.13 197.523 1150.59 217.941 1154.04 221.571C1154.04 221.571 1161.18 229.697 1166.4 234.219C1168.36 235.92 1171.56 238.415 1171.56 238.415C1171.56 238.415 1182.17 244.186 1186.18 248.623C1188.66 251.358 1188.44 254.236 1181.5 258.086C1162.39 268.685 1110.1 291.519 1089.89 295.394C1045.35 302.264 1022.06 305.431 1003.28 301.869C1002.44 302.768 966.917 295.456 955.784 283.571C954.829 284.311 941.963 266.074 943 259.523C942.466 247.387 946.281 234.184 946.297 234.437C946.297 234.437 950.209 227.795 941.628 225.069C937.642 224.638 936.5 229.523 936.5 229.523C936.5 229.523 934.162 233.824 933.178 238.058C930.798 248.298 923.469 255.929 916.258 263.47C912.334 267.576 903.859 276.571 898.196 276.571C894.688 276.571 892.936 271.629 894.445 265.987C899.119 248.509 903.133 232.388 919.971 220.675C933.191 211.48 933.795 225.121 942.95 221.641C951.5 216.023 940 209.523 933.183 208.355C925.5 208.023 914.64 212.415 908.933 217.454C882.955 236.336 878.857 288.743 839.905 290.169C830.03 290.53 820.736 276.484 820 266.523C819.717 262.694 819.218 260.949 820.562 257.241C824 251.023 832.063 247.18 838.14 240.757C847.404 230.968 848.868 229.117 851.977 223.269C854.768 218.021 856.017 212.306 855.906 205.292C855.791 197.912 848.808 194.478 842.193 194.951C817.904 196.69 803.147 232.487 790.634 247.955C790.634 248.9 779.884 260.488 779.884 260.488C779.884 260.488 739.892 316.458 721.689 343.174C716.888 350.224 709.235 354.893 704.07 346.594C689.585 323.307 734.636 252.662 729.603 249.552C731.417 250.712 732.415 241.707 725 237.023C722.134 235.996 707.724 229.523 709.862 220.023C712 210.523 728.908 177.563 725 168.523C721.092 159.483 710.29 158.396 706.259 160.023C701.304 162.023 689.556 174.119 688.931 185.571C688.336 196.519 686.443 207.057 687.999 218.071C688.749 223.382 691.086 227.918 693.763 232.455C680.532 255.895 661.724 302.324 638.582 314.342C633.374 316.274 634.674 316.852 627.634 314.004C620.408 310.536 618.759 279.023 618.759 279.023V264.825C623.259 224.523 631.259 214.523 640.759 191.023C653.876 155.109 669.403 117.975 684.969 81.222C691.491 65.8365 699.411 21.0578 676.236 23.544C658.892 25.4015 652.53 52.7431 646.759 66.023C636.484 89.6362 621.382 201.571 599.634 201.571C589.039 201.571 578.614 213.337 571.826 220.173C563.734 231.333 556.798 243.421 547.575 253.716C537.544 264.912 527.479 275.621 516.5 286.023C511.5 290.523 505 287.023 505 287.023C505 287.023 499.068 280.177 497.123 278.562C484.5 249.523 495.634 227.18 492.608 190.238C494.026 166.152 463.715 201.652 463.085 202.571C454.634 214.902 444.36 244.563 417.567 275.571C416.01 275.571 413.677 275.058 415.219 268.321C418.353 254.622 431.508 215.533 424.59 209.533C423.346 208.454 422.059 207.586 421.731 207.604C411.037 208.205 411.297 235.267 403.692 243.576C395.3 252.748 387.388 260.613 377.926 269.498C358.995 287.261 356.869 237.005 362.433 226.887C364.084 223.884 363.134 220.023 362.197 219.733C361.259 219.443 360.134 219.023 359.384 219.733C358.634 220.443 320.598 263.986 318.726 265.571C318.726 265.571 317.207 267.486 314.134 269.023C311.061 270.56 308.104 271.153 308.104 271.153C308.104 271.153 302.634 272.041 302.634 268.571C302.634 266.346 303.134 261.523 303.134 261.523C303.134 261.523 304.026 257.101 305.581 252.721C309.338 242.135 313.608 231.745 321.318 222.679C321.318 222.679 331.817 212.539 341.434 211.046C345.553 210.406 345.784 210.508 346.889 213.437C347.945 216.234 348.346 216.448 351.589 215.943C355.37 215.355 359.134 213.023 359.634 209.023C360.106 206.665 356.77 202.377 354.634 201.523C346.134 196.523 301.134 216.715 301.134 216.715C301.134 216.715 254.261 222.767 220.648 220.593C220.648 220.593 171.34 210.569 152.634 207.523L143.634 206.023C106.686 197.922 66.0538 193.564 30.7411 209.938C23.613 213.243 14.3226 217.65 9.97009 224.64C8.24958 227.403 6.134 232.023 6.75909 234.571C0.308183 236.911 7.24426 250.613 17.6341 242.571C20.045 240.705 19.1305 234.711 16.0031 233.521C14.7001 233.026 13.6341 232.197 13.6341 231.68C13.6341 224.763 35.6987 214.957 39.8841 212.937C69.89 204.95 100.133 206.085 130.68 210.546C155.599 216.188 208.537 227.41 208.537 227.41C242.835 232.601 272.707 231.649 303.409 225.018C306.677 224.313 305.589 227.189 305.589 227.189C299.748 237.837 292.32 260.071 292.32 260.071C292.32 260.071 288.634 269.523 289.134 277.197C289.134 279.023 290.634 283.523 294.134 284.204C297.134 285.023 302.075 283.868 310.919 283.172C313.897 282.937 316.663 281.888 318.998 280.107C327.435 273.671 334.726 259.718 342.884 255.471C344.122 254.827 344.8 254.657 344.393 255.094C341.634 265.023 357.134 284.523 360.865 284.523C370.619 284.523 397.276 264.296 403.329 256.821C404.601 255.248 404.632 255.303 403.631 257.364C403.019 258.625 402.635 260.875 402.779 262.364C403.09 265.576 400.661 297.326 403.963 297.706C426.096 300.25 451.871 241.861 460.134 220.023C461.634 214.523 471.5 203.023 471.5 203.023C471.5 203.023 474.5 199.523 475.5 199.023C476.5 198.523 479.5 197.523 479.5 200.023C479.5 213.646 473.366 290.217 495.634 295.146C507.718 297.823 509.631 297.411 519 294.023C526.615 289.263 534.464 277.563 541.124 270.882C543.969 268.029 547.385 265.421 548.715 265.087C551.54 264.378 549.832 293.92 565.062 290.235C576.142 287.555 581.99 281.374 589.123 274.126C592.154 271.046 594.637 267.799 594.637 267.799C594.637 267.799 601.303 257.689 604.281 258.106C607.259 258.523 606.788 262.034 606.788 262.034C605.864 276.53 608.259 306.523 614.259 316.523C626.667 342.466 642.759 328.023 652.759 318.523C673.644 295.549 681.84 264.008 699.337 238.66C699.494 238.435 700.421 238.973 701.398 239.858C723.706 260.022 676.39 339.696 687 354.523C692.871 362.727 693 362.523 706.5 363.523C724.102 364.827 736.162 334.801 746.384 324.031C767.073 291.454 790.366 259.448 790.366 259.448C790.981 257.977 796.118 253.136 797.363 253.071C797.363 253.071 804.025 249.965 805.644 255.606C811.7 276.734 808.595 281.609 821.031 293.027C853.895 314.042 876.298 269.59 880.724 273.571C882.265 273.466 885 276.523 884 279.523C883.564 292.638 898.504 289.115 901.896 287.713C907.495 286.274 916.308 280.02 920.511 274.504C927.697 265.07 928.708 264.128 930.461 265.234C931.365 265.804 932.672 268.231 933.366 270.629C939.361 291.336 960.547 298.655 978.132 306.006C1011.62 319.987 1080.53 304.988 1080.53 304.988C1111.39 297.342 1128.81 290.833 1160.01 276.602C1170.28 271.625 1182.44 264.848 1191 257.335C1194.6 254.179 1197.68 253 1203 258.023C1207.09 261.889 1218.21 268.28 1228.78 273.321C1245.26 281.184 1263.26 286.929 1281 291.023C1283.3 291.255 1320.63 295.603 1320.63 295.603C1336.18 296.71 1344.27 295.559 1358.63 293.278C1372.77 290.389 1380.12 289.164 1396.63 284.65C1402.12 282.871 1415.02 277.244 1419.92 274.036C1430.93 266.819 1437.85 264.706 1445.64 256.892C1448.8 253.727 1453.3 250.196 1454.68 252.098C1455.51 252.622 1456 254.878 1455.57 256.392C1453.76 262.718 1460 273.571 1460 273.571C1460 273.571 1462.58 279.378 1465.5 282.023C1468.03 284.314 1469.91 285.12 1473.11 286.317C1476.47 287.576 1478.54 287.878 1482.13 288.099C1486.04 288.34 1488.38 288.394 1492.12 287.254C1495.07 286.359 1501.58 283.076 1506.79 279.105C1511.65 275.399 1513.37 272.189 1517.85 268.033C1520.04 266.011 1523.54 262.96 1523.54 262.96C1523.54 262.96 1529.94 256.13 1532.52 257.512C1534.04 258.321 1534.53 260.074 1535 266.297C1536.14 281.364 1536.2 300.701 1543.3 314.333C1543.3 314.333 1545.27 317.654 1547.5 318.523C1549.07 319.135 1550.43 319.286 1550.43 319.286C1559.68 319.04 1559.5 316.364 1563.5 308.364C1566.43 304.344 1571.61 288.072 1576.39 278.765C1578.83 273.991 1583 266.523 1583 266.523C1583 266.523 1586.66 258.417 1590.5 259.571C1593.35 260.427 1594.38 264.023 1594.38 264.023C1598.54 273.137 1599.83 280.83 1605.04 290.812C1607.85 296.202 1612.99 304.196 1612.99 304.196C1612.99 304.196 1616.2 309.547 1619.61 311.023C1623.15 312.559 1627.1 313.426 1630.7 312.023C1632.53 311.31 1635.63 310.023 1635.63 310.023C1635.63 310.023 1640.21 306.09 1643.13 303.556C1647.62 299.668 1650.23 297.597 1654.57 293.551C1667.29 281.702 1684.2 260.343 1684.2 260.343C1684.2 260.343 1689.14 250.294 1696.76 245.475C1698.46 244.396 1700.28 244.024 1702.5 244.523C1704.58 244.991 1705.73 245.859 1707.07 247.523C1708.38 249.156 1709 252.523 1709 252.523C1709 252.523 1709.66 253.627 1709 255.681C1708.34 257.734 1707.14 260.448 1705.9 262.211C1704.4 264.346 1702.72 268.088 1702.72 268.088C1699.08 277.181 1693.93 286.503 1691.1 294.821C1688.31 303.031 1685.62 318.186 1686.28 323.216C1685.99 332.547 1689.5 349.023 1689.5 349.023C1689.5 349.023 1692.02 358.627 1696.5 362.523C1698.88 364.588 1702 365.523 1702 365.523C1702 365.523 1705.43 366.822 1709.52 366.14C1717.91 364.746 1728.27 356.144 1735.63 345.406C1745.59 330.891 1753.29 314.57 1762.5 299.571C1772.02 284.06 1775.51 277.735 1787.67 260.343C1789.29 258.022 1794.75 253.387 1795.51 253.085C1797.71 252.208 1799.49 255.614 1798.88 259.541C1797.09 271.131 1798.68 296.288 1815.58 302.571C1820.04 304.233 1822.94 305.333 1827.63 304.479C1831.76 303.728 1837.18 299.571 1837.18 299.571C1837.18 299.571 1841.47 295.841 1843.95 293.18C1847.32 289.565 1848.9 287.246 1851.74 283.206C1855.51 277.863 1859.13 272.908 1862.51 267.468C1866.12 261.66 1870 267.571 1870 267.571C1870 267.571 1877.99 279.601 1874.1 292.278C1870.31 304.613 1860.99 307.396 1852.5 317C1845.46 324.957 1840.52 328.615 1834.38 337.286C1824.26 351.601 1815.74 378.137 1815.74 378.137C1815.74 378.137 1812.26 391.769 1816.5 398.5C1823.07 408.911 1836.19 406.389 1847.79 402.281C1857.65 398.79 1867.79 384.473 1867.79 384.473C1873.42 375.862 1880.48 363.572 1884.45 348.669C1886.75 340.024 1887.59 333.802 1888.08 326.05C1889.15 309.054 1891.14 309.081 1890.18 296.912C1889.87 293.06 1891.68 291.528 1894 289C1904.85 277.183 1931.61 273.977 1948.2 273.115C1971.85 271.882 1989.5 273.905 2015.83 276.25C2039.39 278.348 2052.27 283.034 2075.9 283.909C2097.77 284.719 2110.35 285.231 2131.88 281.327C2141.67 279.552 2147.35 278.866 2156.63 275.276C2164.59 272.196 2168.97 269.988 2176.02 265.183C2178.68 263.373 2180.37 262.555 2182.61 260.252C2188.49 254.209 2194.84 246.904 2190.03 239.972C2187.26 235.972 2183.52 231.288 2178.94 234.287C2177.15 235.465 2175.75 238.002 2176.5 239.972C2177.99 243.905 2180.8 241.622 2182 244C2183.74 247.449 2182.07 251.161 2179.5 254.5C2177.57 257.005 2172.48 260.615 2169.38 262.039C2144.64 273.421 2123.8 276.947 2093.63 277.158C2070.52 277.32 2058.06 269.86 2035 267C2011.49 264.085 1998.15 261.169 1974.5 262.5C1959.95 263.319 1951.77 264.472 1937.52 267.571C1920.73 271.225 1911.98 275.767 1895.56 280.839C1892.58 281.761 1890.79 284.429 1887.92 283.19C1884.63 281.77 1886.02 277.932 1885 274.5C1880.96 260.9 1876.23 252.344 1879.63 238.571C1881.97 229.116 1888.97 223.833 1891.73 216.761C1893.03 213.433 1895.1 207.847 1895 203C1894.93 199.462 1892.46 196.283 1888.5 194.5C1888.5 194.5 1879 193 1873 194C1868.63 194.729 1866.39 197 1864.95 202C1863.5 207 1865.81 215.791 1864.95 218.523C1864.95 218.523 1865.98 242.859 1863.58 251.776C1863.03 253.813 1861.5 256.768 1860.17 258.343C1854.14 265.511 1850.63 274.523 1844.63 281.774C1841.51 285.552 1840.08 288.073 1836.2 291.071C1832.3 294.087 1829.81 297.989 1825 296.912C1822.24 296.293 1821.11 294.722 1819.01 292.821C1809.27 283.995 1814 259.541 1814 259.541C1814 259.541 1814.98 247.583 1818.51 228.071C1820.82 215.165 1821.76 214.739 1818 213C1814.79 211.516 1811.85 211.91 1809 214C1806.07 216.148 1805.37 222.571 1805.37 222.571C1805.37 222.571 1800.63 243.004 1797.5 243.004C1796.53 243.004 1784.55 253.406 1783.25 254.989C1761.54 281.488 1741.71 310.73 1726.88 341.843C1726.88 341.843 1721.46 353.518 1714.63 354.638C1711.97 355.075 1710.9 355.762 1707.75 354.13C1705.45 352.943 1703.38 348.673 1702 344.523C1699.7 337.582 1700.25 332.845 1701 325.571C1701.6 319.828 1702.59 315.327 1704 310.5C1709.23 292.571 1715.29 278.911 1721.63 267.468C1727.09 257.618 1728.5 253.148 1724.18 245.787C1721.76 241.654 1714.29 239.575 1713.61 239.574C1702.82 239.548 1705.56 228.674 1707.07 223.477C1707.45 223.317 1720.57 197.99 1716.95 174.571C1716.07 168.892 1711.07 165.549 1705.32 165.556C1701.13 165.561 1698.47 166.782 1695 169.523C1690.71 172.916 1689.41 176.738 1687.63 182.071C1685.99 187.012 1677.89 200.076 1683.16 222.444C1684.7 228.975 1691.5 233.26 1690.5 238.523C1690.63 240.974 1689.57 243.014 1687.5 244.523C1682.94 248.036 1680.73 253.401 1678.38 255.681C1672.99 262.697 1668.46 269.294 1661.9 276.451C1655.87 283.014 1651.53 287.466 1644.46 294.114C1641.36 297.03 1634.93 299.571 1630.7 299.571C1626.65 299.571 1621.52 297.167 1621 295.523C1611.06 285.071 1607.41 265.019 1603.88 252.882C1603.27 250.761 1602.21 249.645 1600.34 248.472C1598.71 247.445 1598.31 247.521 1595.57 247.157C1588.39 246.204 1584.72 248.268 1579.58 256.155C1573.54 265.424 1559.63 292.566 1559.63 292.566C1559.63 292.566 1554.96 302.616 1554.16 302.921C1551.08 304.105 1550 300.023 1550 300.023C1546.41 295.71 1547.18 214.524 1553.01 210.861C1552.5 204.523 1560.88 200.257 1566.06 193.571C1579.89 175.74 1593.97 156.915 1604.69 137.055C1604.69 137.055 1628.75 92.8036 1629.62 90.321C1636.42 70.9421 1643.25 58.1346 1645 37.023C1645.79 27.5389 1646.34 22.7199 1641.5 14.523C1638.24 8.9896 1633.13 4.69752 1627.24 2.11401C1621.54 -0.392047 1617.42 -0.293556 1611.32 1.02301ZM1627.24 10.571C1632.5 14.023 1633.5 15.523 1634.5 22.523C1637.75 45.2674 1601.67 130.212 1592.13 143.159C1592.13 143.159 1577.87 173.12 1566.06 184.023C1561.93 187.849 1558.33 191.017 1555.5 188.523C1553.69 186.925 1554.17 186.075 1553.5 182.523C1548.68 157.095 1569.54 90.9056 1574.5 70.15C1577.03 59.5705 1580.69 49.6194 1585.1 39.571C1590.96 26.1921 1602.92 13.6857 1610.65 10.175C1617.64 7.00398 1627.24 10.571 1627.24 10.571ZM681.603 34.781C683.445 37.056 683.5 39.085 682.122 54.071C680.771 68.7683 632.759 196.523 631.759 198.523C630.759 200.523 630.259 202.023 628.259 201.523C626.259 201.023 626.04 199.821 626.191 197.071C628.787 150.01 649.889 100.059 663.214 55.676C665.958 46.5413 669.687 40.5601 673.259 34.781C676.259 32.023 679.606 32.315 681.603 34.781ZM1266.13 107.721C1271.8 112.221 1274.27 116.122 1276.71 122.935C1278.42 127.733 1278.45 130.733 1278.76 135.819C1280.12 158.497 1256.51 189.571 1256.51 189.571C1241.18 209.842 1222.71 235.678 1197.42 243.174C1188.15 245.922 1161.63 215.802 1161.63 215.802C1161.63 215.802 1133.6 189.211 1128.58 173.867C1125.36 164.042 1122.96 157.411 1123.1 146.636C1123.22 138.131 1122.88 137.727 1124.46 132.349C1127.46 122.108 1131.48 115.328 1141.07 110.654C1147.38 107.578 1151.82 107.536 1158.84 107.887C1175.38 108.715 1187.18 119.133 1195 130.023C1196.92 132.695 1198.32 136.523 1200.36 136.523C1203.91 136.523 1206.5 128.523 1206.5 128.523C1206.5 128.523 1217.32 110.875 1228.64 105.927C1242.07 100.056 1254.66 98.6044 1266.13 107.721ZM715.19 182.518C714.882 188.138 708.921 216.322 702.262 215.375C700.593 215.136 700.067 214.263 699.824 211.321C698.904 200.252 699.088 178.733 710.622 170.302C712.826 168.69 715.19 170.302 715.19 170.302C717.103 172.413 715.222 179.713 715.19 182.518ZM1709 176.023C1709.82 178.471 1710.3 179.963 1710.5 182.523C1711.64 197.097 1707.92 217.571 1696.85 217.571C1685.63 213.072 1697 172.523 1704 173.023C1706.79 173.222 1708.5 174.523 1709 176.023ZM1817.41 190.567C1809.28 194.643 1810.97 195.739 1810.5 197.935C1809.14 204.347 1817.43 207.322 1821 205C1826.99 203 1827 201.733 1827.62 197.935C1827.65 191.155 1824.06 188.566 1817.41 190.567ZM845.773 206.5C851.884 211.494 834.926 234.274 834.926 234.274C824.82 244.982 822.508 244.362 818.5 243.023C808.241 241.173 821.069 198.047 845.773 206.5ZM603.791 241.692C597.617 250.467 590.485 260.685 582.634 267.951C578.623 271.662 576.808 274.5 571.848 276.872C560.267 282.415 566.641 265.44 567.242 260.454C568.153 252.873 577.907 220.173 593.259 211.523C600.759 208.023 600.759 208.023 605.759 211.023C610.759 214.023 606.057 238.473 603.791 241.692ZM1875.08 309.655C1891.62 327.258 1869.7 359.467 1863.32 375C1863.32 375 1854 388.145 1843.5 393C1839.46 394.868 1839.17 397.359 1832.5 396C1829.97 395.484 1826.27 392.95 1825 391.007C1819.43 382.475 1828.83 362.545 1837.11 346.582C1844.68 331.991 1853.08 324.271 1863.32 313.651C1868.79 307.981 1871.17 305.493 1875.08 309.655Z" fill="black"/>
<path fill-rule="evenodd" clip-rule="evenodd" d="M1611.32 1.02301C1607.76 1.79386 1605.85 2.72866 1602.63 4.45495C1599.03 6.38978 1597.29 7.97153 1594.13 10.571C1580.32 21.9468 1570.78 43.7136 1568.52 48.571C1561.29 64.1268 1556.57 86.9988 1555.65 90.571C1547.55 122.137 1539.65 155.66 1537.25 187.821C1536.09 203.261 1538.02 225.745 1531.26 241.911C1526.3 253.789 1516.47 260.963 1510.08 267.173C1507.48 269.704 1504.06 272.223 1502.49 272.771C1501.03 273.282 1498.52 275.776 1495.63 277.071C1492.15 278.636 1486.17 279.537 1486.17 279.537C1486.17 279.537 1478.78 279.934 1475.22 277.433C1470.45 274.086 1469.7 263.571 1469.7 263.571C1469.7 263.571 1468.52 244.376 1470.63 235.574C1472.08 229.534 1474.52 221.721 1477.76 216.404C1477.76 216.404 1480.6 211.902 1483 209.523C1485.88 206.661 1492.27 203.473 1491.5 203.523C1492.46 203.059 1496.08 202.098 1499 202.523C1509.68 204.076 1504.64 224.187 1496.24 230.032C1493.16 233.299 1491.32 239.104 1492.36 242.259C1492.51 242.706 1494.94 243.001 1497.75 242.915C1503.53 242.739 1505.88 241.071 1505.88 237.142C1505.88 229.074 1518.16 196.256 1497.63 197.756C1491.26 198.222 1487.52 198.893 1481.72 201.571C1466.97 208.378 1457.63 229.596 1457.63 235.49C1457.63 239.369 1442.95 249.454 1439.46 253.071C1430.95 259.604 1433.95 258.347 1416.5 268.523C1399.64 278.493 1384.95 281.463 1373.5 283.523C1362.33 287.344 1336.66 288.932 1325.13 288.527C1315.73 288.194 1280.63 283.29 1280.63 283.29C1264.5 281.023 1244.52 270.48 1231.5 265.603C1222.11 262.085 1215.2 257.916 1207 254.523C1195.5 250.523 1231.26 226.821 1231.26 226.821L1255.63 202.057L1274.65 175.04C1274.65 175.04 1293.98 141.478 1285.63 122.071C1281.52 112.512 1277.39 107.172 1268.62 101.562C1254.9 92.7754 1242.3 92.893 1227 98.523C1216.07 102.548 1206.55 110.101 1203.29 116.632C1202.63 117.964 1201.31 119.203 1200.36 119.386C1198.15 119.811 1196.5 116.632 1196.5 116.632C1191.17 110.654 1180.91 101.222 1168 98.523C1157.39 96.3038 1150.34 96.7417 1140.35 100.95C1132.91 104.082 1128.86 106.948 1123.63 113.099C1118.25 119.441 1116.12 124.097 1114.21 132.206C1114.21 132.206 1111.96 150.253 1114.09 161.321C1114.65 166.362 1116.37 170.313 1118.58 174.789L1121.71 180.429L1133.13 197.523C1133.13 197.523 1150.59 217.941 1154.04 221.571C1154.04 221.571 1161.18 229.697 1166.4 234.219C1168.36 235.92 1171.56 238.415 1171.56 238.415C1171.56 238.415 1182.17 244.186 1186.18 248.623C1188.66 251.358 1188.44 254.236 1181.5 258.086C1162.39 268.685 1110.1 291.519 1089.89 295.394C1045.35 302.264 1022.06 305.431 1003.28 301.869C1002.44 302.768 966.917 295.456 955.784 283.571C954.829 284.311 941.963 266.074 943 259.523C942.466 247.387 946.281 234.184 946.297 234.437C946.297 234.437 950.209 227.795 941.628 225.069C937.642 224.638 936.5 229.523 936.5 229.523C936.5 229.523 934.162 233.824 933.178 238.058C930.798 248.298 923.469 255.929 916.258 263.47C912.334 267.576 903.859 276.571 898.196 276.571C894.688 276.571 892.936 271.629 894.445 265.987C899.119 248.509 903.133 232.388 919.971 220.675C933.191 211.48 933.795 225.121 942.95 221.641C951.5 216.023 940 209.523 933.183 208.355C925.5 208.023 914.64 212.415 908.933 217.454C882.955 236.336 878.857 288.743 839.905 290.169C830.03 290.53 820.736 276.484 820 266.523C819.717 262.694 819.218 260.949 820.562 257.241C824 251.023 832.063 247.18 838.14 240.757C847.404 230.968 848.868 229.117 851.977 223.269C854.768 218.021 856.017 212.306 855.906 205.292C855.791 197.912 848.808 194.478 842.193 194.951C817.904 196.69 803.147 232.487 790.634 247.955C790.634 248.9 779.884 260.488 779.884 260.488C779.884 260.488 739.892 316.458 721.689 343.174C716.888 350.224 709.235 354.893 704.07 346.594C689.585 323.307 734.636 252.662 729.603 249.552C731.417 250.712 732.415 241.707 725 237.023C722.134 235.996 707.724 229.523 709.862 220.023C712 210.523 728.908 177.563 725 168.523C721.092 159.483 710.29 158.396 706.259 160.023C701.304 162.023 689.556 174.119 688.931 185.571C688.336 196.519 686.443 207.057 687.999 218.071C688.749 223.382 691.086 227.918 693.763 232.455C680.532 255.895 661.724 302.324 638.582 314.342C633.374 316.274 634.674 316.852 627.634 314.004C620.408 310.536 618.759 279.023 618.759 279.023V264.825C623.259 224.523 631.259 214.523 640.759 191.023C653.876 155.109 669.403 117.975 684.969 81.222C691.491 65.8365 699.411 21.0578 676.236 23.544C658.892 25.4015 652.53 52.7431 646.759 66.023C636.484 89.6362 621.382 201.571 599.634 201.571C589.039 201.571 578.614 213.337 571.826 220.173C563.734 231.333 556.798 243.421 547.575 253.716C537.544 264.912 527.479 275.621 516.5 286.023C511.5 290.523 505 287.023 505 287.023C505 287.023 499.068 280.177 497.123 278.562C484.5 249.523 495.634 227.18 492.608 190.238C494.026 166.152 463.715 201.652 463.085 202.571C454.634 214.902 444.36 244.563 417.567 275.571C416.01 275.571 413.677 275.058 415.219 268.321C418.353 254.622 431.508 215.533 424.59 209.533C423.346 208.454 422.059 207.586 421.731 207.604C411.037 208.205 411.297 235.267 403.692 243.576C395.3 252.748 387.388 260.613 377.926 269.498C358.995 287.261 356.869 237.005 362.433 226.887C364.084 223.884 363.134 220.023 362.197 219.733C361.259 219.443 360.134 219.023 359.384 219.733C358.634 220.443 320.598 263.986 318.726 265.571C318.726 265.571 317.207 267.486 314.134 269.023C311.061 270.56 308.104 271.153 308.104 271.153C308.104 271.153 302.634 272.041 302.634 268.571C302.634 266.346 303.134 261.523 303.134 261.523C303.134 261.523 304.026 257.101 305.581 252.721C309.338 242.135 313.608 231.745 321.318 222.679C321.318 222.679 331.817 212.539 341.434 211.046C345.553 210.406 345.784 210.508 346.889 213.437C347.945 216.234 348.346 216.448 351.589 215.943C355.37 215.355 359.134 213.023 359.634 209.023C360.106 206.665 356.77 202.377 354.634 201.523C346.134 196.523 301.134 216.715 301.134 216.715C301.134 216.715 254.261 222.767 220.648 220.593C220.648 220.593 171.34 210.569 152.634 207.523L143.634 206.023C106.686 197.922 66.0538 193.564 30.7411 209.938C23.613 213.243 14.3226 217.65 9.97009 224.64C8.24958 227.403 6.134 232.023 6.75909 234.571C0.308183 236.911 7.24426 250.613 17.6341 242.571C20.045 240.705 19.1305 234.711 16.0031 233.521C14.7001 233.026 13.6341 232.197 13.6341 231.68C13.6341 224.763 35.6987 214.957 39.8841 212.937C69.89 204.95 100.133 206.085 130.68 210.546C155.599 216.188 208.537 227.41 208.537 227.41C242.835 232.601 272.707 231.649 303.409 225.018C306.677 224.313 305.589 227.189 305.589 227.189C299.748 237.837 292.32 260.071 292.32 260.071C292.32 260.071 288.634 269.523 289.134 277.197C289.134 279.023 290.634 283.523 294.134 284.204C297.134 285.023 302.075 283.868 310.919 283.172C313.897 282.937 316.663 281.888 318.998 280.107C327.435 273.671 334.726 259.718 342.884 255.471C344.122 254.827 344.8 254.657 344.393 255.094C341.634 265.023 357.134 284.523 360.865 284.523C370.619 284.523 397.276 264.296 403.329 256.821C404.601 255.248 404.632 255.303 403.631 257.364C403.019 258.625 402.635 260.875 402.779 262.364C403.09 265.576 400.661 297.326 403.963 297.706C426.096 300.25 451.871 241.861 460.134 220.023C461.634 214.523 471.5 203.023 471.5 203.023C471.5 203.023 474.5 199.523 475.5 199.023C476.5 198.523 479.5 197.523 479.5 200.023C479.5 213.646 473.366 290.217 495.634 295.146C507.718 297.823 509.631 297.411 519 294.023C526.615 289.263 534.464 277.563 541.124 270.882C543.969 268.029 547.385 265.421 548.715 265.087C551.54 264.378 549.832 293.92 565.062 290.235C576.142 287.555 581.99 281.374 589.123 274.126C592.154 271.046 594.637 267.799 594.637 267.799C594.637 267.799 601.303 257.689 604.281 258.106C607.259 258.523 606.788 262.034 606.788 262.034C605.864 276.53 608.259 306.523 614.259 316.523C626.667 342.466 642.759 328.023 652.759 318.523C673.644 295.549 681.84 264.008 699.337 238.66C699.494 238.435 700.421 238.973 701.398 239.858C723.706 260.022 676.39 339.696 687 354.523C692.871 362.727 693 362.523 706.5 363.523C724.102 364.827 736.162 334.801 746.384 324.031C767.073 291.454 790.366 259.448 790.366 259.448C790.981 257.977 796.118 253.136 797.363 253.071C797.363 253.071 804.025 249.965 805.644 255.606C811.7 276.734 808.595 281.609 821.031 293.027C853.895 314.042 876.298 269.59 880.724 273.571C882.265 273.466 885 276.523 884 279.523C883.564 292.638 898.504 289.115 901.896 287.713C907.495 286.274 916.308 280.02 920.511 274.504C927.697 265.07 928.708 264.128 930.461 265.234C931.365 265.804 932.672 268.231 933.366 270.629C939.361 291.336 960.547 298.655 978.132 306.006C1011.62 319.987 1080.53 304.988 1080.53 304.988C1111.39 297.342 1128.81 290.833 1160.01 276.602C1170.28 271.625 1182.44 264.848 1191 257.335C1194.6 254.179 1197.68 253 1203 258.023C1207.09 261.889 1218.21 268.28 1228.78 273.321C1245.26 281.184 1263.26 286.929 1281 291.023C1283.3 291.255 1320.63 295.603 1320.63 295.603C1336.18 296.71 1344.27 295.559 1358.63 293.278C1372.77 290.389 1380.12 289.164 1396.63 284.65C1402.12 282.871 1415.02 277.244 1419.92 274.036C1430.93 266.819 1437.85 264.706 1445.64 256.892C1448.8 253.727 1453.3 250.196 1454.68 252.098C1455.51 252.622 1456 254.878 1455.57 256.392C1453.76 262.718 1460 273.571 1460 273.571C1460 273.571 1462.58 279.378 1465.5 282.023C1468.03 284.314 1469.91 285.12 1473.11 286.317C1476.47 287.576 1478.54 287.878 1482.13 288.099C1486.04 288.34 1488.38 288.394 1492.12 287.254C1495.07 286.359 1501.58 283.076 1506.79 279.105C1511.65 275.399 1513.37 272.189 1517.85 268.033C1520.04 266.011 1523.54 262.96 1523.54 262.96C1523.54 262.96 1529.94 256.13 1532.52 257.512C1534.04 258.321 1534.53 260.074 1535 266.297C1536.14 281.364 1536.2 300.701 1543.3 314.333C1543.3 314.333 1545.27 317.654 1547.5 318.523C1549.07 319.135 1550.43 319.286 1550.43 319.286C1559.68 319.04 1559.5 316.364 1563.5 308.364C1566.43 304.344 1571.61 288.072 1576.39 278.765C1578.83 273.991 1583 266.523 1583 266.523C1583 266.523 1586.66 258.417 1590.5 259.571C1593.35 260.427 1594.38 264.023 1594.38 264.023C1598.54 273.137 1599.83 280.83 1605.04 290.812C1607.85 296.202 1612.99 304.196 1612.99 304.196C1612.99 304.196 1616.2 309.547 1619.61 311.023C1623.15 312.559 1627.1 313.426 1630.7 312.023C1632.53 311.31 1635.63 310.023 1635.63 310.023C1635.63 310.023 1640.21 306.09 1643.13 303.556C1647.62 299.668 1650.23 297.597 1654.57 293.551C1667.29 281.702 1684.2 260.343 1684.2 260.343C1684.2 260.343 1689.14 250.294 1696.76 245.475C1698.46 244.396 1700.28 244.024 1702.5 244.523C1704.58 244.991 1705.73 245.859 1707.07 247.523C1708.38 249.156 1709 252.523 1709 252.523C1709 252.523 1709.66 253.627 1709 255.681C1708.34 257.734 1707.14 260.448 1705.9 262.211C1704.4 264.346 1702.72 268.088 1702.72 268.088C1699.08 277.181 1693.93 286.503 1691.1 294.821C1688.31 303.031 1685.62 318.186 1686.28 323.216C1685.99 332.547 1689.5 349.023 1689.5 349.023C1689.5 349.023 1692.02 358.627 1696.5 362.523C1698.88 364.588 1702 365.523 1702 365.523C1702 365.523 1705.43 366.822 1709.52 366.14C1717.91 364.746 1728.27 356.144 1735.63 345.406C1745.59 330.891 1753.29 314.57 1762.5 299.571C1772.02 284.06 1775.51 277.735 1787.67 260.343C1789.29 258.022 1794.75 253.387 1795.51 253.085C1797.71 252.208 1799.49 255.614 1798.88 259.541C1797.09 271.131 1798.68 296.288 1815.58 302.571C1820.04 304.233 1822.94 305.333 1827.63 304.479C1831.76 303.728 1837.18 299.571 1837.18 299.571C1837.18 299.571 1841.47 295.841 1843.95 293.18C1847.32 289.565 1848.9 287.246 1851.74 283.206C1855.51 277.863 1859.13 272.908 1862.51 267.468C1866.12 261.66 1870 267.571 1870 267.571C1870 267.571 1877.99 279.601 1874.1 292.278C1870.31 304.613 1860.99 307.396 1852.5 317C1845.46 324.957 1840.52 328.615 1834.38 337.286C1824.26 351.601 1815.74 378.137 1815.74 378.137C1815.74 378.137 1812.26 391.769 1816.5 398.5C1823.07 408.911 1836.19 406.389 1847.79 402.281C1857.65 398.79 1867.79 384.473 1867.79 384.473C1873.42 375.862 1880.48 363.572 1884.45 348.669C1886.75 340.024 1887.59 333.802 1888.08 326.05C1889.15 309.054 1891.14 309.081 1890.18 296.912C1889.87 293.06 1891.68 291.528 1894 289C1904.85 277.183 1931.61 273.977 1948.2 273.115C1971.85 271.882 1989.5 273.905 2015.83 276.25C2039.39 278.348 2052.27 283.034 2075.9 283.909C2097.77 284.719 2110.35 285.231 2131.88 281.327C2141.67 279.552 2147.35 278.866 2156.63 275.276C2164.59 272.196 2168.97 269.988 2176.02 265.183C2178.68 263.373 2180.37 262.555 2182.61 260.252C2188.49 254.209 2194.84 246.904 2190.03 239.972C2187.26 235.972 2183.52 231.288 2178.94 234.287C2177.15 235.465 2175.75 238.002 2176.5 239.972C2177.99 243.905 2180.8 241.622 2182 244C2183.74 247.449 2182.07 251.161 2179.5 254.5C2177.57 257.005 2172.48 260.615 2169.38 262.039C2144.64 273.421 2123.8 276.947 2093.63 277.158C2070.52 277.32 2058.06 269.86 2035 267C2011.49 264.085 1998.15 261.169 1974.5 262.5C1959.95 263.319 1951.77 264.472 1937.52 267.571C1920.73 271.225 1911.98 275.767 1895.56 280.839C1892.58 281.761 1890.79 284.429 1887.92 283.19C1884.63 281.77 1886.02 277.932 1885 274.5C1880.96 260.9 1876.23 252.344 1879.63 238.571C1881.97 229.116 1888.97 223.833 1891.73 216.761C1893.03 213.433 1895.1 207.847 1895 203C1894.93 199.462 1892.46 196.283 1888.5 194.5C1888.5 194.5 1879 193 1873 194C1868.63 194.729 1866.39 197 1864.95 202C1863.5 207 1865.81 215.791 1864.95 218.523C1864.95 218.523 1865.98 242.859 1863.58 251.776C1863.03 253.813 1861.5 256.768 1860.17 258.343C1854.14 265.511 1850.63 274.523 1844.63 281.774C1841.51 285.552 1840.08 288.073 1836.2 291.071C1832.3 294.087 1829.81 297.989 1825 296.912C1822.24 296.293 1821.11 294.722 1819.01 292.821C1809.27 283.995 1814 259.541 1814 259.541C1814 259.541 1814.98 247.583 1818.51 228.071C1820.82 215.165 1821.76 214.739 1818 213C1814.79 211.516 1811.85 211.91 1809 214C1806.07 216.148 1805.37 222.571 1805.37 222.571C1805.37 222.571 1800.63 243.004 1797.5 243.004C1796.53 243.004 1784.55 253.406 1783.25 254.989C1761.54 281.488 1741.71 310.73 1726.88 341.843C1726.88 341.843 1721.46 353.518 1714.63 354.638C1711.97 355.075 1710.9 355.762 1707.75 354.13C1705.45 352.943 1703.38 348.673 1702 344.523C1699.7 337.582 1700.25 332.845 1701 325.571C1701.6 319.828 1702.59 315.327 1704 310.5C1709.23 292.571 1715.29 278.911 1721.63 267.468C1727.09 257.618 1728.5 253.148 1724.18 245.787C1721.76 241.654 1714.29 239.575 1713.61 239.574C1702.82 239.548 1705.56 228.674 1707.07 223.477C1707.45 223.317 1720.57 197.99 1716.95 174.571C1716.07 168.892 1711.07 165.549 1705.32 165.556C1701.13 165.561 1698.47 166.782 1695 169.523C1690.71 172.916 1689.41 176.738 1687.63 182.071C1685.99 187.012 1677.89 200.076 1683.16 222.444C1684.7 228.975 1691.5 233.26 1690.5 238.523C1690.63 240.974 1689.57 243.014 1687.5 244.523C1682.94 248.036 1680.73 253.401 1678.38 255.681C1672.99 262.697 1668.46 269.294 1661.9 276.451C1655.87 283.014 1651.53 287.466 1644.46 294.114C1641.36 297.03 1634.93 299.571 1630.7 299.571C1626.65 299.571 1621.52 297.167 1621 295.523C1611.06 285.071 1607.41 265.019 1603.88 252.882C1603.27 250.761 1602.21 249.645 1600.34 248.472C1598.71 247.445 1598.31 247.521 1595.57 247.157C1588.39 246.204 1584.72 248.268 1579.58 256.155C1573.54 265.424 1559.63 292.566 1559.63 292.566C1559.63 292.566 1554.96 302.616 1554.16 302.921C1551.08 304.105 1550 300.023 1550 300.023C1546.41 295.71 1547.18 214.524 1553.01 210.861C1552.5 204.523 1560.88 200.257 1566.06 193.571C1579.89 175.74 1593.97 156.915 1604.69 137.055C1604.69 137.055 1628.75 92.8036 1629.62 90.321C1636.42 70.9421 1643.25 58.1346 1645 37.023C1645.79 27.5389 1646.34 22.7199 1641.5 14.523C1638.24 8.9896 1633.13 4.69752 1627.24 2.11401C1621.54 -0.392047 1617.42 -0.293556 1611.32 1.02301ZM1627.24 10.571C1632.5 14.023 1633.5 15.523 1634.5 22.523C1637.75 45.2674 1601.67 130.212 1592.13 143.159C1592.13 143.159 1577.87 173.12 1566.06 184.023C1561.93 187.849 1558.33 191.017 1555.5 188.523C1553.69 186.925 1554.17 186.075 1553.5 182.523C1548.68 157.095 1569.54 90.9056 1574.5 70.15C1577.03 59.5705 1580.69 49.6194 1585.1 39.571C1590.96 26.1921 1602.92 13.6857 1610.65 10.175C1617.64 7.00398 1627.24 10.571 1627.24 10.571ZM681.603 34.781C683.445 37.056 683.5 39.085 682.122 54.071C680.771 68.7683 632.759 196.523 631.759 198.523C630.759 200.523 630.259 202.023 628.259 201.523C626.259 201.023 626.04 199.821 626.191 197.071C628.787 150.01 649.889 100.059 663.214 55.676C665.958 46.5413 669.687 40.5601 673.259 34.781C676.259 32.023 679.606 32.315 681.603 34.781ZM1266.13 107.721C1271.8 112.221 1274.27 116.122 1276.71 122.935C1278.42 127.733 1278.45 130.733 1278.76 135.819C1280.12 158.497 1256.51 189.571 1256.51 189.571C1241.18 209.842 1222.71 235.678 1197.42 243.174C1188.15 245.922 1161.63 215.802 1161.63 215.802C1161.63 215.802 1133.6 189.211 1128.58 173.867C1125.36 164.042 1122.96 157.411 1123.1 146.636C1123.22 138.131 1122.88 137.727 1124.46 132.349C1127.46 122.108 1131.48 115.328 1141.07 110.654C1147.38 107.578 1151.82 107.536 1158.84 107.887C1175.38 108.715 1187.18 119.133 1195 130.023C1196.92 132.695 1198.32 136.523 1200.36 136.523C1203.91 136.523 1206.5 128.523 1206.5 128.523C1206.5 128.523 1217.32 110.875 1228.64 105.927C1242.07 100.056 1254.66 98.6044 1266.13 107.721ZM715.19 182.518C714.882 188.138 708.921 216.322 702.262 215.375C700.593 215.136 700.067 214.263 699.824 211.321C698.904 200.252 699.088 178.733 710.622 170.302C712.826 168.69 715.19 170.302 715.19 170.302C717.103 172.413 715.222 179.713 715.19 182.518ZM1709 176.023C1709.82 178.471 1710.3 179.963 1710.5 182.523C1711.64 197.097 1707.92 217.571 1696.85 217.571C1685.63 213.072 1697 172.523 1704 173.023C1706.79 173.222 1708.5 174.523 1709 176.023ZM1817.41 190.567C1809.28 194.643 1810.97 195.739 1810.5 197.935C1809.14 204.347 1817.43 207.322 1821 205C1826.99 203 1827 201.733 1827.62 197.935C1827.65 191.155 1824.06 188.566 1817.41 190.567ZM845.773 206.5C851.884 211.494 834.926 234.274 834.926 234.274C824.82 244.982 822.508 244.362 818.5 243.023C808.241 241.173 821.069 198.047 845.773 206.5ZM603.791 241.692C597.617 250.467 590.485 260.685 582.634 267.951C578.623 271.662 576.808 274.5 571.848 276.872C560.267 282.415 566.641 265.44 567.242 260.454C568.153 252.873 577.907 220.173 593.259 211.523C600.759 208.023 600.759 208.023 605.759 211.023C610.759 214.023 606.057 238.473 603.791 241.692ZM1875.08 309.655C1891.62 327.258 1869.7 359.467 1863.32 375C1863.32 375 1854 388.145 1843.5 393C1839.46 394.868 1839.17 397.359 1832.5 396C1829.97 395.484 1826.27 392.95 1825 391.007C1819.43 382.475 1828.83 362.545 1837.11 346.582C1844.68 331.991 1853.08 324.271 1863.32 313.651C1868.79 307.981 1871.17 305.493 1875.08 309.655Z" stroke="black" stroke-width="2" mask="url(#path-1-inside-1_31_1260)"/>
</g>
<defs>
<filter id="filter0_d_31_1260" x="0.265869" y="0.110474" width="2195.46" height="413.735" filterUnits="userSpaceOnUse" color-interpolation-filters="sRGB">
<feFlood flood-opacity="0" result="BackgroundImageFix"/>
<feColorMatrix in="SourceAlpha" type="matrix" values="0 0 0 0 0 0 0 0 0 0 0 0 0 0 0 0 0 0 127 0" result="hardAlpha"/>
<feOffset dy="4"/>
<feGaussianBlur stdDeviation="2"/>
<feComposite in2="hardAlpha" operator="out"/>
<feColorMatrix type="matrix" values="0 0 0 0 0 0 0 0 0 0 0 0 0 0 0 0 0 0 0.25 0"/>
<feBlend mode="normal" in2="BackgroundImageFix" result="effect1_dropShadow_31_1260"/>
<feBlend mode="normal" in="SourceGraphic" in2="effect1_dropShadow_31_1260" result="shape"/>
</filter>
</defs>
</svg>
